<svg width="25" height="25" viewBox="0 0 25 25" fill="none" xmlns="http://www.w3.org/2000/svg">
<g clip-path="url(#clip0)">
<path d="M21.3433 3.6579C16.4668 -1.2191 8.53252 -1.2191 3.65716 3.65672C-1.21937 8.53255 -1.2189 16.4668 3.65763 21.3436C8.53275 26.2192 16.4668 26.2192 21.3428 21.3426C26.2189 16.4668 26.2187 8.53302 21.3433 3.6579ZM19.9787 19.979C15.8551 24.1027 9.14491 24.1031 5.02126 19.9795C0.896671 15.8551 0.897142 9.14447 5.02126 5.02082C9.14467 0.897408 15.8546 0.896936 19.9792 5.02129C24.1029 9.14494 24.1024 15.8556 19.9787 19.979ZM17.8295 16.7428C17.8295 17.1957 17.4622 17.5629 17.0094 17.5629H7.99131C7.53849 17.5629 7.17124 17.1957 7.17124 16.7428C7.17124 16.29 7.53849 15.923 7.99131 15.923H17.0096C17.4622 15.9232 17.8295 16.29 17.8295 16.7428ZM7.91211 9.7472L6.69062 8.52571C6.40092 8.23601 6.40092 7.76599 6.69062 7.47653C6.98031 7.18683 7.4501 7.18683 7.7398 7.47653L9.96874 9.70524C9.97204 9.70854 9.97417 9.71231 9.97747 9.71585C10.2511 9.9815 10.4218 10.3528 10.4218 10.7639C10.4218 11.5717 9.76721 12.226 8.96034 12.226C8.15348 12.226 7.49866 11.5717 7.49866 10.7639C7.49866 10.3686 7.65682 10.0105 7.91211 9.7472ZM18.3089 7.47677C18.5986 7.76646 18.5986 8.23625 18.3089 8.52595L17.0874 9.74744C17.3427 10.0107 17.5009 10.369 17.5009 10.7646C17.5009 11.5721 16.8463 12.2265 16.0392 12.2265C15.2323 12.2265 14.5777 11.5721 14.5777 10.7646C14.5777 10.3532 14.7486 9.98198 15.0223 9.71632C15.0256 9.71279 15.0272 9.70901 15.0308 9.70572L17.2597 7.477C17.5494 7.18683 18.0192 7.18683 18.3089 7.47677Z" fill="black"/>
</g>
<defs>
<clipPath id="clip0">
<rect width="25" height="25" fill="white"/>
</clipPath>
</defs>
</svg>

