<svg width="22" height="19" viewBox="0 0 22 19" fill="none" xmlns="http://www.w3.org/2000/svg">
<g clip-path="url(#clip0)">
<path fill-rule="evenodd" clip-rule="evenodd" d="M11.0002 15.1833C8.79415 15.1833 7 13.389 7 11.1838C7 8.97774 8.79415 7.18359 11.0002 7.18359C13.2054 7.18359 15 8.97774 15 11.1838C15 13.389 13.2055 15.1833 11.0002 15.1833V15.1833Z" stroke="black"/>
<path fill-rule="evenodd" clip-rule="evenodd" d="M0.971852 17.7454C0.418471 17.1208 0.484913 16.2809 0.484913 16.0837V6.97849C0.484913 5.10905 1.87949 4.52494 2.70222 4.48853H6.67026C6.80474 2.49329 7.46706 0.498047 9.32273 0.498047L12.8157 0.498446C14.6714 0.498446 15.3337 2.49369 15.4682 4.48893L19.3617 4.46578C20.989 4.46578 21.4816 5.92111 21.5361 6.69407L21.4969 16.0837C21.4969 17.7212 20.118 18.3579 19.3683 18.4325L2.63129 18.4556C1.90153 18.4556 1.3701 18.1968 0.971852 17.7454Z" stroke="black"/>
</g>
<defs>
<clipPath id="clip0">
<rect width="22" height="19" fill="white"/>
</clipPath>
</defs>
</svg>
