<svg width="52" height="52" viewBox="0 0 52 52" fill="none" xmlns="http://www.w3.org/2000/svg">
<path d="M20.898 18.382C19.3063 21.7196 17.9712 24.7491 17.9712 25.0572C17.9712 25.8274 17.4064 25.8274 15.6093 25.1599C13.7094 24.3897 11.8096 25.6733 11.8096 27.6759C11.8096 28.4974 12.1177 29.3703 12.4771 29.6271C13.8121 30.7054 35.7888 39.5371 37.0211 39.5371C38.7669 39.5371 39.6398 38.4588 39.4344 36.6103C39.2804 35.1212 38.2534 34.4024 33.8376 32.6566L31.8864 31.8864L32.7593 29.8325C33.5808 27.8299 35.2753 26.7003 37.2778 26.7003C38.8696 26.7003 37.8427 28.3434 35.6861 29.319C34.4024 29.8838 33.3754 30.654 33.3754 31.0648C33.3754 32.0917 34.2483 31.9891 36.9697 30.654C38.8696 29.7298 39.3317 29.2676 39.4344 27.9326C39.6912 25.4679 37.9967 24.5437 34.8132 25.4166C33.7862 25.6733 33.3754 25.5706 33.3754 25.1599C33.3754 24.8004 32.3485 22.2844 31.0648 19.6144C28.9082 15.0444 28.6515 14.7364 27.8813 15.5579C27.0597 16.3281 26.957 16.2768 25.9814 14.531C25.3653 13.504 24.6464 12.5798 24.3383 12.4771C24.0302 12.3744 22.4898 15.0444 20.898 18.382ZM26.2382 18.1253C26.9057 18.9982 27.2651 19.1009 27.8299 18.5874C28.4461 18.0739 28.8569 18.6388 30.2946 21.8223C32.2971 26.4949 32.1945 28.7542 29.7811 30.9108C27.0084 33.4268 24.3383 33.4268 21.5142 30.9108C18.8955 28.6001 18.9468 26.3922 21.8223 20.2819C23.9275 15.8147 24.3383 15.2498 24.8518 16.1227C25.1599 16.6362 25.776 17.5605 26.2382 18.1253ZM16.6362 27.2651C17.7145 27.7786 18.7928 29.6784 18.228 30.1919C17.7659 30.654 13.35 28.2407 13.35 27.5218C13.35 26.5462 14.8391 26.4435 16.6362 27.2651ZM33.016 34.1456C35.378 35.1726 35.7888 35.532 35.5834 36.4563C35.4293 37.0211 35.2753 37.4832 35.1726 37.4832C35.1212 37.4832 33.7862 36.9184 32.2971 36.3022C30.7567 35.6347 29.0623 34.9159 28.4974 34.7105C27.5732 34.351 27.5732 34.2997 28.7542 33.6322C29.473 33.2727 30.0892 32.9647 30.0892 32.9133C30.1406 32.862 31.4242 33.4268 33.016 34.1456Z" fill="black" fill-opacity="0.3"/>
<path d="M26.2385 23.4144C25.9304 24.2359 25.3142 25.3656 24.9034 25.879C24.1332 26.906 24.1332 26.906 23.4144 25.879C22.6955 24.9548 22.6442 24.9548 22.3361 26.3412C21.4632 29.8328 25.9817 32.2461 28.1897 29.4734C29.5247 27.7789 29.5247 27.0087 28.0356 24.1846L26.8546 21.9767L26.2385 23.4144Z" fill="black" fill-opacity="0.3"/>
<path d="M14.378 34.0429C12.5809 34.9159 12.0161 35.4807 11.9134 36.6103C11.708 38.4588 12.5809 39.5371 14.2753 39.5371C16.1752 39.5371 23.6205 36.4049 23.6205 35.5834C23.6205 34.6078 22.5422 34.7618 19.3074 36.1995C17.7156 36.9184 16.3292 37.4832 16.2265 37.4832C16.1238 37.4832 15.9184 37.0211 15.7644 36.4563C15.559 35.6861 15.8671 35.2239 16.9967 34.6078C17.8183 34.197 18.3831 33.6322 18.2291 33.3754C17.7669 32.6052 16.9454 32.7593 14.378 34.0429Z" fill="black" fill-opacity="0.3"/>
</svg>
