<svg width="52" height="52" viewBox="0 0 52 52" fill="none" xmlns="http://www.w3.org/2000/svg">
<path d="M17.8078 13.2615C16.5878 14.4814 16.4001 20.2996 17.5731 20.2996C18.1362 20.2996 18.277 19.6896 18.277 17.5782C18.277 16.0767 18.5116 14.6222 18.84 14.2937C19.6377 13.4961 31.9309 13.4961 32.7286 14.2937C33.1039 14.6691 33.2916 17.0151 33.2916 21.801V28.7453H25.6435C20.3415 28.7453 17.8078 28.933 17.4324 29.3084C16.5878 30.1529 16.6817 33.4374 17.5731 33.4374C18.0424 33.4374 18.277 32.9213 18.277 31.7952V30.1529H24.8459H31.4148V32.9682V35.7834H24.6582C18.277 35.7834 17.8547 35.8304 17.5731 36.7219C17.2447 37.801 17.667 39.5371 18.277 39.5371C18.5585 39.5371 18.84 39.021 19.0277 38.3641L19.3092 37.1911H25.7843H32.2594L32.5409 38.3641C32.9163 39.8656 33.667 39.8656 34.0424 38.3641C34.23 37.6603 34.6523 37.1911 35.1685 37.1911C35.6377 37.1911 36.4822 36.7688 37.0922 36.2996C38.1714 35.455 38.2183 35.1735 38.2183 29.0268C38.2183 22.1764 38.0775 21.7072 35.7784 21.7072C34.7462 21.7072 34.6992 21.5195 34.6992 17.9535C34.6992 12.37 34.6054 12.323 25.7843 12.323C19.3561 12.323 18.6523 12.4169 17.8078 13.2615ZM36.4822 29.3084C36.3415 34.7981 36.2476 35.5488 35.5438 35.6896C34.7931 35.8304 34.6992 35.3142 34.6992 29.4961C34.6992 23.3963 34.7462 23.1148 35.6377 23.1148C36.5761 23.1148 36.5761 23.3494 36.4822 29.3084Z" fill="black" fill-opacity="0.3"/>
<path d="M22.0312 19.8316C22.0312 20.0662 22.3597 20.3008 22.7351 20.3008C23.1104 20.3008 23.4389 20.0662 23.4389 19.8316C23.4389 19.55 23.1104 19.3624 22.7351 19.3624C22.3597 19.3624 22.0312 19.55 22.0312 19.8316Z" fill="black" fill-opacity="0.3"/>
<path d="M28.1309 19.8316C28.1309 20.0662 28.4593 20.3008 28.8347 20.3008C29.21 20.3008 29.5385 20.0662 29.5385 19.8316C29.5385 19.55 29.21 19.3624 28.8347 19.3624C28.4593 19.3624 28.1309 19.55 28.1309 19.8316Z" fill="black" fill-opacity="0.3"/>
<path d="M14.0544 22.1767C13.4913 22.5052 13.3506 23.819 13.3506 29.0272C13.3506 35.1738 13.3975 35.4553 14.4767 36.2999C15.0867 36.7691 15.8374 37.1914 16.2128 37.1914C17.245 37.1914 17.0104 35.9245 15.9312 35.643C15.0397 35.4084 14.9928 34.9861 14.9928 29.2618C14.9928 23.4436 15.0397 23.1152 15.9312 23.1152C16.7289 23.1152 16.8696 23.4436 16.8696 25.4612C16.8696 27.2442 17.0573 27.8072 17.5735 27.8072C18.465 27.8072 18.5588 23.1152 17.7142 22.2706C17.0573 21.6137 15.0397 21.5199 14.0544 22.1767Z" fill="black" fill-opacity="0.3"/>
</svg>
