<svg width="25" height="25" viewBox="0 0 25 25" fill="none" xmlns="http://www.w3.org/2000/svg">
<path d="M12.5005 5.5556C14.0346 5.5556 15.2783 4.31194 15.2783 2.7778C15.2783 1.24366 14.0346 0 12.5005 0C10.9663 0 9.72266 1.24366 9.72266 2.7778C9.72266 4.31194 10.9663 5.5556 12.5005 5.5556Z" fill="#ACB1BB"/>
<path d="M12.5005 15.2783C14.0346 15.2783 15.2783 14.0346 15.2783 12.5005C15.2783 10.9663 14.0346 9.72266 12.5005 9.72266C10.9663 9.72266 9.72266 10.9663 9.72266 12.5005C9.72266 14.0346 10.9663 15.2783 12.5005 15.2783Z" fill="#ACB1BB"/>
<path d="M12.5005 25.0009C14.0346 25.0009 15.2783 23.7572 15.2783 22.2231C15.2783 20.689 14.0346 19.4453 12.5005 19.4453C10.9663 19.4453 9.72266 20.689 9.72266 22.2231C9.72266 23.7572 10.9663 25.0009 12.5005 25.0009Z" fill="#ACB1BB"/>
</svg>
