<svg width="25" height="25" viewBox="0 0 25 25" fill="none" xmlns="http://www.w3.org/2000/svg">
<path d="M21.3388 3.66118C18.9779 1.30024 15.8389 0 12.5 0C9.16113 0 6.02207 1.30024 3.66118 3.66118C1.3002 6.02207 0 9.16113 0 12.5C0 15.8389 1.3002 18.9779 3.66118 21.3388C6.02207 23.6998 9.16113 25 12.5 25C15.8389 25 18.9779 23.6998 21.3388 21.3388C23.6998 18.9779 25 15.8389 25 12.5C25 9.16113 23.6998 6.02207 21.3388 3.66118ZM12.5 23.5119C6.42803 23.5119 1.48809 18.572 1.48809 12.5C1.48809 6.42803 6.42803 1.48809 12.5 1.48809C18.572 1.48809 23.5119 6.42803 23.5119 12.5C23.5119 18.572 18.572 23.5119 12.5 23.5119Z" fill="white"/>
<path d="M9.7965 9.199C8.57809 7.98049 6.59552 7.98059 5.37711 9.199C5.08654 9.48953 5.08654 9.96067 5.37711 10.2512C5.66774 10.5418 6.13888 10.5418 6.42941 10.2512C7.06769 9.61301 8.10616 9.61306 8.74435 10.2512C8.88966 10.3966 9.08004 10.4692 9.27042 10.4692C9.4608 10.4692 9.65128 10.3966 9.7965 10.2512C10.0871 9.96067 10.0871 9.48958 9.7965 9.199Z" fill="white"/>
<path d="M19.6227 9.199C18.4043 7.98059 16.4217 7.98049 15.2033 9.199C14.9127 9.48953 14.9127 9.96067 15.2033 10.2512C15.4939 10.5418 15.9651 10.5418 16.2556 10.2512C16.8938 9.61301 17.9322 9.61296 18.5705 10.2512C18.7158 10.3966 18.9062 10.4692 19.0966 10.4692C19.287 10.4692 19.4775 10.3966 19.6227 10.2512C19.9132 9.96067 19.9132 9.48958 19.6227 9.199Z" fill="white"/>
<path d="M19.0977 13.0469H5.90322C5.49229 13.0469 5.15918 13.38 5.15918 13.7909C5.15918 17.8389 8.45249 21.1322 12.5004 21.1322C16.5484 21.1322 19.8417 17.8389 19.8417 13.7909C19.8417 13.38 19.5086 13.0469 19.0977 13.0469ZM12.5004 19.6441C9.52495 19.6441 7.06089 17.4125 6.69434 14.535H18.3066C17.94 17.4125 15.4759 19.6441 12.5004 19.6441Z" fill="white"/>
</svg>
