<svg width="52" height="52" viewBox="0 0 52 52" fill="none" xmlns="http://www.w3.org/2000/svg">
<path d="M20.0021 18.8264C16.2653 22.5633 13.1762 25.9015 13.1762 26.2005C13.1762 26.8482 15.2688 28.891 15.9165 28.891C16.2155 28.891 18.8063 26.4994 21.746 23.5598L27.127 18.1787L31.113 22.1647L35.099 26.1506V30.884C35.0491 36.1654 34.3018 37.8594 31.9102 37.8594H30.6148V32.3787V26.898H27.127H23.6393V32.3787V37.8594H21.3972H19.1551V34.1226C19.1551 31.1331 19.0056 30.3857 18.4078 30.3857C18.0092 30.3857 17.6604 30.8342 17.6604 31.3324C17.6604 32.6777 12.4786 37.8594 11.1832 37.8594C10.5355 37.8594 10.1867 38.1085 10.2864 38.4573C10.4856 38.9556 13.2758 39.1548 21.6962 39.2545C33.5544 39.404 35.099 39.2545 35.099 38.1085C35.099 37.7099 35.4477 37.3612 35.8463 37.3612C36.2449 37.3612 36.5937 37.6601 36.5937 38.0587C36.5937 38.9057 37.939 39.5036 38.3376 38.8061C38.5369 38.557 38.1881 37.7099 37.64 36.9127C36.793 35.7668 36.5937 34.7205 36.5937 31.6812C36.5937 28.044 36.6435 27.8945 37.5902 28.4924C38.3874 28.9906 38.7362 28.9408 39.8323 27.8945C40.5298 27.2468 41.0779 26.4994 41.0779 26.2005C41.0779 25.6524 27.6253 11.9507 27.127 11.9507C26.9776 11.9507 23.7888 15.0398 20.0021 18.8264ZM33.2555 19.8229C38.487 25.0545 39.8821 26.898 38.6863 26.898C38.487 26.898 35.9958 24.5563 33.106 21.6664C30.2162 18.7766 27.5256 16.4349 27.127 16.4349C26.7284 16.4349 24.0379 18.7766 21.1481 21.6664C18.2583 24.5563 15.767 26.898 15.5678 26.898C14.372 26.898 15.7671 25.0545 20.9986 19.8229C24.2372 16.5843 26.9776 13.9436 27.127 13.9436C27.2765 13.9436 30.0169 16.5843 33.2555 19.8229ZM26.1306 33.3752C26.1306 33.6243 25.9313 33.8734 25.6323 33.8734C25.3832 33.8734 25.1341 33.6243 25.1341 33.3752C25.1341 33.0763 25.3832 32.877 25.6323 32.877C25.9313 32.877 26.1306 33.0763 26.1306 33.3752ZM17.6604 36.1156C17.6604 37.7099 17.5607 37.8594 16.1656 37.8594C14.5214 37.8594 14.1727 37.112 15.6176 36.6138C16.1158 36.4643 16.6639 35.8664 16.8134 35.3682C17.212 33.8236 17.6604 34.2222 17.6604 36.1156Z" fill="black"/>
</svg>
