<svg width="30" height="30" viewBox="0 0 30 30" fill="none" xmlns="http://www.w3.org/2000/svg">
<path d="M4.92167 5.85941C3.51542 7.26566 3.46854 8.39066 4.73417 10.0313C5.57792 11.0625 5.62479 11.4844 5.20292 12.7032C4.54667 14.5782 3.51542 23.8125 3.89042 24.2344C4.54667 24.8438 4.87479 23.7657 5.67167 18.2344C6.23417 14.1094 6.74979 12.1875 7.45292 11.2032C8.48417 9.79691 8.76542 8.43753 7.96854 8.43753C7.68729 8.43753 7.35917 8.76566 7.21854 9.14066C6.79667 10.1719 6.14042 9.98441 5.53104 8.67191C5.15604 7.78128 5.15604 7.35941 5.62479 6.79691C6.42167 5.85941 6.74979 5.90628 8.34354 7.26566C9.70292 8.39066 9.70292 8.39066 12.0467 7.64066C15.0935 6.65628 16.5467 7.07816 19.031 9.51566C21.656 12.1407 22.2185 14.3438 21.8435 20.4844C21.5623 25.7813 21.4685 25.6407 24.4217 24.75C26.0154 24.2813 26.2498 24.0469 26.2498 22.7813C26.2498 21 25.031 13.1719 24.6092 12.0938C24.4217 11.625 24.7029 10.7813 25.3123 9.89066C27.7498 6.65628 23.7185 3.04691 20.8592 5.95316C20.2498 6.56253 19.781 6.56253 18.0467 6.14066C15.4217 5.48441 13.781 5.53128 11.6717 6.28128C10.1248 6.84378 9.89042 6.79691 8.71854 5.76566C7.12479 4.40628 6.32792 4.40628 4.92167 5.85941Z" fill="black"/>
<path d="M9.84375 16.125C9.84375 16.6406 10.2656 16.875 11.0625 16.875C12.5156 16.875 12.375 15.7969 10.875 15.5625C10.1719 15.4688 9.84375 15.6562 9.84375 16.125Z" fill="black"/>
<path d="M13.3594 16.3125C12.9375 16.7812 11.9531 18.5625 11.1563 20.25C9.46876 23.9062 9.60938 25.1719 11.9531 27.5156C14.0625 29.625 15.9375 29.625 18.0469 27.5156C20.3906 25.1719 20.5313 23.9062 18.8438 20.25C18.0469 18.5625 17.0625 16.7812 16.6406 16.3125C15.75 15.2344 14.25 15.2344 13.3594 16.3125ZM15.8438 18.7031C16.6875 21.4219 16.5938 22.4531 15.5156 22.1719C14.2969 21.8438 12.6563 22.8281 12.6563 23.8125C12.7031 24.7969 13.7344 26.25 14.4844 26.25C15.0938 26.25 15.1875 27 14.625 27.375C13.9688 27.75 12.375 26.3906 11.7656 24.9375C11.25 23.7656 11.3438 23.2031 12.4219 20.8594C14.3906 16.3125 15.0469 15.9375 15.8438 18.7031Z" fill="black"/>
<path d="M18.1403 15.7969C17.484 16.4063 17.859 16.875 18.9841 16.875C19.7341 16.875 20.1559 16.5938 20.1559 16.1719C20.1559 15.4688 18.7028 15.1875 18.1403 15.7969Z" fill="black"/>
</svg>
