<svg width="25" height="25" viewBox="0 0 25 25" fill="none" xmlns="http://www.w3.org/2000/svg">
<path d="M21.3388 3.66118C18.9779 1.30024 15.8389 0 12.5 0C9.16113 0 6.02207 1.30024 3.66118 3.66118C1.3002 6.02207 0 9.16113 0 12.5C0 15.8389 1.3002 18.9779 3.66118 21.3388C6.02207 23.6998 9.16113 25 12.5 25C15.8389 25 18.9779 23.6998 21.3388 21.3388C23.6998 18.9779 25 15.8389 25 12.5C25 9.16113 23.6998 6.02207 21.3388 3.66118ZM12.5 23.5119C6.42803 23.5119 1.48809 18.572 1.48809 12.5C1.48809 6.42803 6.42803 1.48809 12.5 1.48809C18.572 1.48809 23.5119 6.42803 23.5119 12.5C23.5119 18.572 18.572 23.5119 12.5 23.5119Z" fill="black"/>
<circle cx="7.5" cy="9.5" r="1.5" fill="black"/>
<circle cx="17.5" cy="9.5" r="1.5" fill="black"/>
<rect x="7" y="15" width="11" height="1.5" rx="0.75" fill="black"/>
</svg>
