<svg width="25" height="25" viewBox="0 0 25 25" fill="none" xmlns="http://www.w3.org/2000/svg">
<path d="M12.5 0C5.60747 0 0 5.60747 0 12.5C0 19.3925 5.60747 25 12.5 25C19.3925 25 25 19.3925 25 12.5C25 5.60747 19.3925 0 12.5 0ZM12.5 23.5352C6.41519 23.5352 1.46484 18.5848 1.46484 12.5C1.46484 6.41519 6.41519 1.46484 12.5 1.46484C18.5848 1.46484 23.5352 6.41519 23.5352 12.5C23.5352 18.5848 18.5848 23.5352 12.5 23.5352Z" fill="black"/>
<path d="M12.5006 14.0273C10.4528 14.0273 8.52681 15.1187 7.47437 16.8753C7.26646 17.2223 7.37925 17.6722 7.72622 17.88C8.07324 18.088 8.523 17.9751 8.73091 17.6282C9.52026 16.3107 10.9647 15.4922 12.5006 15.4922C14.0409 15.4922 15.4874 16.3142 16.2758 17.6374C16.4129 17.8673 16.6561 17.995 16.9057 17.995C17.0332 17.995 17.1624 17.9617 17.2799 17.8917C17.6274 17.6846 17.7412 17.2351 17.5342 16.8876C16.483 15.1233 14.5543 14.0273 12.5006 14.0273Z" fill="black"/>
<path d="M10.9023 9.94791C11.0334 9.56525 10.8293 9.14879 10.4466 9.01779C10.0639 8.88678 9.64746 9.09083 9.51646 9.4735C9.27657 10.1745 8.61753 10.6455 7.87657 10.6455C7.13511 10.6455 6.47588 10.174 6.23623 9.47242C6.10547 9.08971 5.68926 8.88532 5.3064 9.01608C4.92359 9.14684 4.71934 9.56315 4.85005 9.94591C5.29224 11.2405 6.5085 12.1103 7.87657 12.1103C9.24366 12.1103 10.4596 11.2413 10.9023 9.94791Z" fill="black"/>
<path d="M19.6987 9.01779C19.3162 8.88688 18.8996 9.09083 18.7685 9.4735C18.5285 10.1745 17.8695 10.6455 17.1286 10.6455C16.3871 10.6455 15.7278 10.174 15.4882 9.47242C15.3574 9.08971 14.9413 8.88532 14.5584 9.01608C14.1755 9.14684 13.9713 9.56315 14.102 9.94591C14.5442 11.2405 15.7605 12.1103 17.1286 12.1103C18.4956 12.1103 19.7116 11.2414 20.1544 9.94801C20.2854 9.56525 20.0814 9.14884 19.6987 9.01779Z" fill="black"/>
</svg>
